<svg width="41" height="40" viewBox="0 0 41 40" fill="none" xmlns="http://www.w3.org/2000/svg">
<ellipse cx="20.3955" cy="20" rx="20.3955" ry="20" fill="#D9D9D9"/>
<path d="M14 17V24.6841C14 26.4952 14 27.4008 14.5858 27.9635C15.8999 29.2257 23.8558 29.4604 25.4142 27.9635C26 27.4008 26 26.4952 26 24.6841V17" stroke="#131851" stroke-width="2" stroke-linecap="round"/>
<path d="M13.7407 20L11.0432 17.3892C10.3477 16.716 10 16.3795 10 15.9612C10 15.543 10.3477 15.2064 11.0432 14.5333L13.0442 12.5966C13.3909 12.2611 13.5642 12.0933 13.7709 11.9697C13.9775 11.8461 14.2101 11.771 14.6753 11.621L16.3211 11.09C16.5618 11.0123 16.6821 10.9735 16.7639 11.0202C16.8457 11.0669 16.8716 11.2013 16.9232 11.4702C17.1936 12.8768 18.4683 13.9418 20 13.9418C21.5317 13.9418 22.8064 12.8768 23.0768 11.4702C23.1284 11.2013 23.1543 11.0669 23.2361 11.0202C23.3179 10.9735 23.4382 11.0123 23.6789 11.09L25.3247 11.621C25.7899 11.771 26.0225 11.8461 26.2291 11.9697C26.4358 12.0933 26.6091 12.2611 26.9558 12.5966L28.9568 14.5333C29.6523 15.2064 30 15.543 30 15.9612C30 16.3795 29.6523 16.716 28.9568 17.3892L26.2593 20" stroke="#131851" stroke-width="2" stroke-linecap="round" stroke-linejoin="round"/>
</svg>
