<svg width="41" height="40" viewBox="0 0 41 40" fill="none" xmlns="http://www.w3.org/2000/svg">
<ellipse cx="20.3955" cy="20" rx="20.3955" ry="20" fill="#D9D9D9"/>
<path d="M11.735 18.3046L15.0531 9.50894L21.3145 11.2942L19.495 20.5172C19.0367 22.8408 16.6904 24.2764 14.4129 23.6271C12.1353 22.9777 10.8991 20.5205 11.735 18.3046Z" stroke="#131851" stroke-width="2" stroke-linecap="round" stroke-linejoin="round"/>
<path d="M14.4152 23.6261L12.5744 30.0822" stroke="#131851" stroke-width="2" stroke-linecap="round" stroke-linejoin="round"/>
<path d="M10.029 29.3549L15.1156 30.8051" stroke="#131851" stroke-width="2" stroke-linecap="round" stroke-linejoin="round"/>
<path d="M13.3973 13.8929L20.4017 15.9085" stroke="#131851" stroke-width="2"/>
<path d="M22.6857 23.3647C23.5524 23.793 24.5765 23.9153 25.587 23.6272C27.8646 22.9778 29.101 20.5207 28.2649 18.3048L24.9469 9.50909L23.9603 9.79039" stroke="#131851" stroke-width="2" stroke-linecap="round" stroke-linejoin="round"/>
<path d="M25.5848 23.6261L27.4256 30.0822" stroke="#131851" stroke-width="2" stroke-linecap="round" stroke-linejoin="round"/>
<path d="M29.9709 29.3549L24.8843 30.8051" stroke="#131851" stroke-width="2" stroke-linecap="round" stroke-linejoin="round"/>
<path d="M26.6027 13.9129L23.7426 14.7374" stroke="#131851" stroke-width="2" stroke-linecap="round" stroke-linejoin="round"/>
</svg>
