<svg width="396" height="60" viewBox="0 0 396 60" fill="none" xmlns="http://www.w3.org/2000/svg">
<path d="M0 0H163.25C172 0 175.875 12.5 175.875 12.5C175.875 12.5 180 25 196.5 25C213 25 217.125 12.5 217.125 12.5C217.125 12.5 221.5 0 229.75 0C294.284 0 331.466 0 396 0L393 60H0V0Z" fill="white"/>
<path d="M0 0H163.25C172 0 175.875 12.5 175.875 12.5C175.875 12.5 180 25 196.5 25C213 25 217.125 12.5 217.125 12.5C217.125 12.5 221.5 0 229.75 0C294.284 0 331.466 0 396 0L393 60H0V0Z" fill="white"/>
<path d="M45 40.4999V32.4999C45 32.2347 44.8946 31.9803 44.7071 31.7928C44.5196 31.6052 44.2652 31.4999 44 31.4999H40C39.7348 31.4999 39.4804 31.6052 39.2929 31.7928C39.1054 31.9803 39 32.2347 39 32.4999V40.4999" stroke="black" stroke-width="2" stroke-linecap="round" stroke-linejoin="round"/>
<path d="M33 29.4999C32.9999 29.2089 33.0633 28.9215 33.1858 28.6576C33.3082 28.3937 33.4868 28.1597 33.709 27.9719L40.709 21.9719C41.07 21.6668 41.5274 21.4994 42 21.4994C42.4726 21.4994 42.93 21.6668 43.291 21.9719L50.291 27.9719C50.5132 28.1597 50.6918 28.3937 50.8142 28.6576C50.9367 28.9215 51.0001 29.2089 51 29.4999V38.4999C51 39.0303 50.7893 39.539 50.4142 39.9141C50.0391 40.2892 49.5304 40.4999 49 40.4999H35C34.4696 40.4999 33.9609 40.2892 33.5858 39.9141C33.2107 39.539 33 39.0303 33 38.4999V29.4999Z" stroke="black" stroke-width="2" stroke-linecap="round" stroke-linejoin="round"/>
<path d="M111 24.4999H111.01" stroke="black" stroke-width="2" stroke-linecap="round" stroke-linejoin="round"/>
<path d="M111 31.4999H111.01" stroke="black" stroke-width="2" stroke-linecap="round" stroke-linejoin="round"/>
<path d="M111 38.4999H111.01" stroke="black" stroke-width="2" stroke-linecap="round" stroke-linejoin="round"/>
<path d="M116 24.4999H129" stroke="black" stroke-width="2" stroke-linecap="round" stroke-linejoin="round"/>
<path d="M116 31.4999H129" stroke="black" stroke-width="2" stroke-linecap="round" stroke-linejoin="round"/>
<path d="M116 38.4999H129" stroke="black" stroke-width="2" stroke-linecap="round" stroke-linejoin="round"/>
<path d="M273 37.4999V42.4999" stroke="black" stroke-width="2" stroke-linecap="round" stroke-linejoin="round"/>
<path d="M277 35.4999V42.4999" stroke="black" stroke-width="2" stroke-linecap="round" stroke-linejoin="round"/>
<path d="M281 31.4999V42.4999" stroke="black" stroke-width="2" stroke-linecap="round" stroke-linejoin="round"/>
<path d="M283 24.4999L274.354 33.1459C274.308 33.1924 274.252 33.2294 274.192 33.2546C274.131 33.2798 274.066 33.2928 274 33.2928C273.934 33.2928 273.869 33.2798 273.808 33.2546C273.748 33.2294 273.692 33.1924 273.646 33.1459L270.354 29.8539C270.26 29.7601 270.133 29.7075 270 29.7075C269.868 29.7075 269.741 29.7601 269.647 29.8539L263 36.4999" stroke="black" stroke-width="2" stroke-linecap="round" stroke-linejoin="round"/>
<path d="M265 39.4999V42.4999" stroke="black" stroke-width="2" stroke-linecap="round" stroke-linejoin="round"/>
<path d="M269 35.4999V42.4999" stroke="black" stroke-width="2" stroke-linecap="round" stroke-linejoin="round"/>
<path d="M351 34.4999C353.761 34.4999 356 32.2613 356 29.4999C356 26.7385 353.761 24.4999 351 24.4999C348.239 24.4999 346 26.7385 346 29.4999C346 32.2613 348.239 34.4999 351 34.4999Z" stroke="black" stroke-width="2" stroke-linecap="round" stroke-linejoin="round"/>
<path d="M359 42.4999C359 40.3781 358.157 38.3433 356.657 36.843C355.157 35.3427 353.122 34.4999 351 34.4999C348.878 34.4999 346.843 35.3427 345.343 36.843C343.843 38.3433 343 40.3781 343 42.4999" stroke="black" stroke-width="2" stroke-linecap="round" stroke-linejoin="round"/>
</svg>
