<svg width="41" height="40" viewBox="0 0 41 40" fill="none" xmlns="http://www.w3.org/2000/svg">
<ellipse cx="20.3955" cy="20" rx="20.3955" ry="20" fill="#D9D9D9"/>
<path d="M28.3812 17.875L26.75 16.2449V12.25C26.75 11.6312 26.2438 11.125 25.625 11.125H24.5C23.8812 11.125 23.375 11.6312 23.375 12.25V12.8721L21.125 10.6244C20.8179 10.3341 20.5366 10 20 10C19.4634 10 19.1821 10.3341 18.875 10.6244L11.6188 17.875C11.2678 18.2406 11 18.5073 11 19C11 19.6334 11.486 20.125 12.125 20.125H13.25V26.875C13.25 27.4938 13.7562 28 14.375 28H16.625C17.2463 28 17.75 27.4963 17.75 26.875V22.375C17.75 21.7562 18.2562 21.25 18.875 21.25H21.125C21.7438 21.25 22.25 21.7562 22.25 22.375V26.875C22.25 27.4963 22.1912 28 22.8125 28H25.625C26.2438 28 26.75 27.4938 26.75 26.875V20.125H27.875C28.514 20.125 29 19.6334 29 19C29 18.5073 28.7322 18.2406 28.3812 17.875Z" stroke="#131851" stroke-width="2" stroke-linejoin="round"/>
</svg>
