<svg width="41" height="40" viewBox="0 0 41 40" fill="none" xmlns="http://www.w3.org/2000/svg">
<ellipse cx="20.3955" cy="20" rx="20.3955" ry="20" fill="#D9D9D9"/>
<path fill-rule="evenodd" clip-rule="evenodd" d="M14.8655 12.25C14.8655 15.1404 17.2262 17.5 20.118 17.5C23.0098 17.5 25.3705 15.1404 25.3705 12.25C25.3705 9.35955 23.0098 7 20.118 7C17.2262 7 14.8655 9.35955 14.8655 12.25ZM15.8492 12.25C15.8492 9.89046 17.7574 7.98316 20.1181 7.98316C22.4788 7.98316 24.3869 9.89046 24.3869 12.25C24.3869 14.6096 22.4788 16.5169 20.1181 16.5169C17.7574 16.5169 15.8492 14.6096 15.8492 12.25Z" fill="#131851"/>
<path d="M20.118 17.5V17C17.5021 17 15.3655 14.8641 15.3655 12.25H14.8655H14.3655C14.3655 15.4168 16.9503 18 20.118 18V17.5ZM25.3705 12.25H24.8705C24.8705 14.8641 22.7339 17 20.118 17V17.5V18C23.2857 18 25.8705 15.4168 25.8705 12.25H25.3705ZM20.118 7V7.5C22.7339 7.5 24.8705 9.63591 24.8705 12.25H25.3705H25.8705C25.8705 9.08319 23.2857 6.5 20.118 6.5V7ZM14.8655 12.25H15.3655C15.3655 9.63591 17.5021 7.5 20.118 7.5V7V6.5C16.9503 6.5 14.3655 9.08319 14.3655 12.25H14.8655ZM20.1181 7.98316V7.48316C17.4815 7.48316 15.3492 9.6141 15.3492 12.25H15.8492H16.3492C16.3492 10.1668 18.0334 8.48316 20.1181 8.48316V7.98316ZM24.3869 12.25H24.8869C24.8869 9.6141 22.7547 7.48316 20.1181 7.48316V7.98316V8.48316C22.2028 8.48316 23.8869 10.1668 23.8869 12.25H24.3869ZM20.1181 16.5169V17.0169C22.7547 17.0169 24.8869 14.8859 24.8869 12.25H24.3869H23.8869C23.8869 14.3332 22.2028 16.0169 20.1181 16.0169V16.5169ZM15.8492 12.25H15.3492C15.3492 14.8859 17.4815 17.0169 20.1181 17.0169V16.5169V16.0169C18.0334 16.0169 16.3492 14.3332 16.3492 12.25H15.8492Z" fill="#131851"/>
<path fill-rule="evenodd" clip-rule="evenodd" d="M21.495 24.8479C21.495 27.7383 23.8557 30.0979 26.7475 30.0979C29.6393 30.0979 31.9999 27.7383 31.9999 24.8479C31.9999 21.9574 29.6393 19.5979 26.7475 19.5979C23.8557 19.5979 21.495 21.9574 21.495 24.8479ZM22.4787 24.8479C22.4787 22.4883 24.3869 20.581 26.7476 20.581C29.1082 20.581 31.0164 22.4883 31.0164 24.8479C31.0164 27.2074 29.1082 29.1147 26.7476 29.1147C24.3869 29.1147 22.4787 27.2074 22.4787 24.8479Z" fill="#131851"/>
<path d="M26.7475 30.0979V29.5979C24.1316 29.5979 21.995 27.4619 21.995 24.8479H21.495H20.995C20.995 28.0147 23.5797 30.5979 26.7475 30.5979V30.0979ZM31.9999 24.8479H31.4999C31.4999 27.4619 29.3633 29.5979 26.7475 29.5979V30.0979V30.5979C29.9152 30.5979 32.4999 28.0147 32.4999 24.8479H31.9999ZM26.7475 19.5979V20.0979C29.3633 20.0979 31.4999 22.2338 31.4999 24.8479H31.9999H32.4999C32.4999 21.681 29.9152 19.0979 26.7475 19.0979V19.5979ZM21.495 24.8479H21.995C21.995 22.2338 24.1316 20.0979 26.7475 20.0979V19.5979V19.0979C23.5797 19.0979 20.995 21.681 20.995 24.8479H21.495ZM26.7476 20.581V20.081C24.111 20.081 21.9787 22.212 21.9787 24.8479H22.4787H22.9787C22.9787 22.7647 24.6628 21.081 26.7476 21.081V20.581ZM31.0164 24.8479H31.5164C31.5164 22.212 29.3841 20.081 26.7476 20.081V20.581V21.081C28.8323 21.081 30.5164 22.7647 30.5164 24.8479H31.0164ZM26.7476 29.1147V29.6147C29.3841 29.6147 31.5164 27.4838 31.5164 24.8479H31.0164H30.5164C30.5164 26.9311 28.8323 28.6147 26.7476 28.6147V29.1147ZM22.4787 24.8479H21.9787C21.9787 27.4838 24.111 29.6147 26.7476 29.6147V29.1147V28.6147C24.6628 28.6147 22.9787 26.9311 22.9787 24.8479H22.4787Z" fill="#131851"/>
<path fill-rule="evenodd" clip-rule="evenodd" d="M8 24.8479C8 27.7383 10.3607 30.0979 13.2525 30.0979C16.1443 30.0979 18.5049 27.7383 18.5049 24.8479C18.5049 21.9574 16.1443 19.5979 13.2525 19.5979C10.3607 19.5979 8 21.9574 8 24.8479ZM8.98364 24.8479C8.98364 22.4883 10.8918 20.581 13.2525 20.581C15.6132 20.581 17.5213 22.4883 17.5213 24.8479C17.5213 27.2074 15.6132 29.1147 13.2525 29.1147C10.8918 29.1147 8.98364 27.2074 8.98364 24.8479Z" fill="#131851"/>
<path d="M13.2525 30.0979V29.5979C10.6366 29.5979 8.5 27.4619 8.5 24.8479H8H7.5C7.5 28.0147 10.0847 30.5979 13.2525 30.5979V30.0979ZM18.5049 24.8479H18.0049C18.0049 27.4619 15.8683 29.5979 13.2525 29.5979V30.0979V30.5979C16.4202 30.5979 19.0049 28.0147 19.0049 24.8479H18.5049ZM13.2525 19.5979V20.0979C15.8683 20.0979 18.0049 22.2338 18.0049 24.8479H18.5049H19.0049C19.0049 21.681 16.4202 19.0979 13.2525 19.0979V19.5979ZM8 24.8479H8.5C8.5 22.2338 10.6366 20.0979 13.2525 20.0979V19.5979V19.0979C10.0847 19.0979 7.5 21.681 7.5 24.8479H8ZM13.2525 20.581V20.081C10.6159 20.081 8.48364 22.212 8.48364 24.8479H8.98364H9.48364C9.48364 22.7647 11.1678 21.081 13.2525 21.081V20.581ZM17.5213 24.8479H18.0213C18.0213 22.212 15.8891 20.081 13.2525 20.081V20.581V21.081C15.3372 21.081 17.0213 22.7647 17.0213 24.8479H17.5213ZM13.2525 29.1147V29.6147C15.8891 29.6147 18.0213 27.4838 18.0213 24.8479H17.5213H17.0213C17.0213 26.9311 15.3372 28.6147 13.2525 28.6147V29.1147ZM8.98364 24.8479H8.48364C8.48364 27.4838 10.6159 29.6147 13.2525 29.6147V29.1147V28.6147C11.1678 28.6147 9.48364 26.9311 9.48364 24.8479H8.98364Z" fill="#131851"/>
</svg>
