<svg width="41" height="40" viewBox="0 0 41 40" fill="none" xmlns="http://www.w3.org/2000/svg">
<ellipse cx="20.3955" cy="20" rx="20.3955" ry="20" fill="#D9D9D9"/>
<g clip-path="url(#clip0_133_143)">
<path d="M28.7143 8.85715H13.2857C12.3389 8.85715 11.5714 9.62466 11.5714 10.5714V26.8571C11.5714 27.8039 12.3389 28.5714 13.2857 28.5714H28.7143C29.6611 28.5714 30.4286 27.8039 30.4286 26.8571V10.5714C30.4286 9.62466 29.6611 8.85715 28.7143 8.85715Z" stroke="#131851" stroke-width="2" stroke-linecap="round" stroke-linejoin="round"/>
<path d="M15 28.5714V31.1429" stroke="#131851" stroke-width="2" stroke-linecap="round" stroke-linejoin="round"/>
<path d="M27 28.5714V31.1429" stroke="#131851" stroke-width="2" stroke-linecap="round" stroke-linejoin="round"/>
<path d="M11.5714 20H30.4286" stroke="#131851" stroke-width="2" stroke-linecap="round" stroke-linejoin="round"/>
<path d="M15.8571 24.7143C15.6204 24.7143 15.4285 24.5224 15.4285 24.2857C15.4285 24.049 15.6204 23.8571 15.8571 23.8571" stroke="#131851" stroke-width="2" stroke-linecap="round" stroke-linejoin="round"/>
<path d="M15.8571 24.7143C16.0938 24.7143 16.2857 24.5224 16.2857 24.2857C16.2857 24.049 16.0938 23.8571 15.8571 23.8571" stroke="#131851" stroke-width="2" stroke-linecap="round" stroke-linejoin="round"/>
<path d="M26.1429 24.7143C25.9062 24.7143 25.7143 24.5224 25.7143 24.2857C25.7143 24.049 25.9062 23.8571 26.1429 23.8571" stroke="#131851" stroke-width="2" stroke-linecap="round" stroke-linejoin="round"/>
<path d="M26.1429 24.7143C26.3796 24.7143 26.5715 24.5224 26.5715 24.2857C26.5715 24.049 26.3796 23.8571 26.1429 23.8571" stroke="#131851" stroke-width="2" stroke-linecap="round" stroke-linejoin="round"/>
</g>
<defs>
<clipPath id="clip0_133_143">
<rect width="24" height="24" fill="white" transform="translate(9 8)"/>
</clipPath>
</defs>
</svg>
