<svg width="41" height="40" viewBox="0 0 41 40" fill="none" xmlns="http://www.w3.org/2000/svg">
<ellipse cx="20.3955" cy="20" rx="20.3955" ry="20" fill="#D9D9D9"/>
<g clip-path="url(#clip0_133_132)">
<path d="M13.7077 26.2925H11.222C10.6006 26.2407 10.0213 25.9573 9.59909 25.4984C9.17686 25.0396 8.9425 24.4388 8.9425 23.8153C8.9425 23.1917 9.17686 22.591 9.59909 22.1321C10.0213 21.6733 10.6006 21.3899 11.222 21.3382H15.1648L17.702 18.801L10.742 14.5153C10.2061 14.1841 9.81608 13.6617 9.6506 13.0539C9.48512 12.4461 9.55658 11.7982 9.85054 11.241C9.98031 10.9222 10.174 10.6333 10.4197 10.3922C10.6655 10.1511 10.958 9.96289 11.2792 9.8392C11.6005 9.71552 11.9437 9.65896 12.2876 9.67303C12.6316 9.6871 12.969 9.77149 13.2791 9.92101L22.3648 14.121L26.7534 9.681C27.2262 9.20816 27.8675 8.94252 28.5363 8.94252C29.205 8.94252 29.8463 9.20816 30.3191 9.681C30.7919 10.1538 31.0576 10.7952 31.0576 11.4639C31.0576 12.1326 30.7919 12.7739 30.3191 13.2467L25.8791 17.6353L30.0791 26.8067C30.2173 27.1121 30.2927 27.4422 30.3008 27.7774C30.309 28.1123 30.2499 28.4458 30.1266 28.7576C30.0035 29.0693 29.8191 29.3531 29.5842 29.5923C29.3492 29.8314 29.0687 30.021 28.7591 30.1496C28.202 30.4436 27.554 30.5149 26.9463 30.3495C26.3384 30.1841 25.816 29.7939 25.4848 29.2582L21.1991 22.2982L18.662 24.8353V28.7782C18.6102 29.3996 18.3268 29.9789 17.868 30.4011C17.4091 30.8233 16.8084 31.0577 16.1848 31.0577C15.5613 31.0577 14.9605 30.8233 14.5017 30.4011C14.0428 29.9789 13.7594 29.3996 13.7077 28.7782V26.2925Z" stroke="#131851" stroke-width="2" stroke-linecap="round" stroke-linejoin="round"/>
</g>
<defs>
<clipPath id="clip0_133_132">
<rect width="24" height="24" fill="white" transform="translate(8 8)"/>
</clipPath>
</defs>
</svg>
